<svg width="100" height="100" viewBox="0 0 100 100" fill="none" xmlns="http://www.w3.org/2000/svg">
<path d="M54.1667 35.4167H37.5C29.4459 35.4167 22.9167 28.8875 22.9167 20.8333C22.9167 12.7792 29.4459 6.25 37.5 6.25H54.1667V35.4167Z" fill="#E64A19"/>
<path d="M52.0834 64.5834H37.5C29.4459 64.5834 22.9167 58.0542 22.9167 50C22.9167 41.9459 29.4459 35.4167 37.5 35.4167H52.0834V64.5834Z" fill="#7C4DFF"/>
<path d="M37.5 93.75C29.4459 93.75 22.9167 87.2208 22.9167 79.1666C22.9167 71.1125 29.4459 64.5833 37.5 64.5833H52.0834V79.1666C52.0834 87.2208 45.5542 93.75 37.5 93.75Z" fill="#66BB6A"/>
<path d="M66.6666 35.4167H52.0833V6.25H66.6666C74.7208 6.25 81.25 12.7792 81.25 20.8333C81.25 28.8875 74.7208 35.4167 66.6666 35.4167Z" fill="#FF7043"/>
<path d="M66.6666 64.5834C74.7208 64.5834 81.25 58.0542 81.25 50C81.25 41.9459 74.7208 35.4167 66.6666 35.4167C58.6125 35.4167 52.0833 41.9459 52.0833 50C52.0833 58.0542 58.6125 64.5834 66.6666 64.5834Z" fill="#29B6F6"/>
</svg>
