<svg width="100" height="100" viewBox="0 0 100 100" fill="none" xmlns="http://www.w3.org/2000/svg">
<path d="M87.9167 46.0417L53.9584 12.0834C52.9167 11.0417 51.4584 10.4167 50 10.4167C48.5417 10.4167 47.0834 11.0417 46.0417 12.0834L38.75 19.375L47.2917 27.9167C48.125 27.5 48.9584 27.2917 50 27.2917C53.5417 27.2917 56.25 30 56.25 33.5417C56.25 34.5834 56.0417 35.4167 55.625 36.25L63.9584 44.5834C64.7917 44.1667 65.625 43.9584 66.6667 43.9584C70.2084 43.9584 72.9167 46.6667 72.9167 50.2084C72.9167 53.75 70.2084 56.4584 66.6667 56.4584C63.125 56.4584 60.4167 53.75 60.4167 50.2084C60.4167 49.1667 60.625 48.3334 61.0417 47.5L52.7084 39.1667C52.5 39.1667 52.2917 39.375 52.0834 39.375V61.0417C54.5834 61.875 56.25 64.1667 56.25 66.875C56.25 70.4167 53.5417 73.125 50 73.125C46.4584 73.125 43.75 70.4167 43.75 66.875C43.75 64.1667 45.4167 61.875 47.9167 61.0417V39.1667C45.4167 38.3334 43.75 36.0417 43.75 33.3334C43.75 32.2917 43.9584 31.4584 44.375 30.625L35.8334 22.0834L12.0834 46.0417C11.0417 47.0834 10.4167 48.5417 10.4167 50C10.4167 51.4584 11.0417 52.9167 12.0834 53.9584L46.0417 87.9167C47.0834 88.9584 48.5417 89.5834 50 89.5834C51.4584 89.5834 52.9167 88.9584 53.9584 87.9167L87.9167 53.9584C88.9584 52.9167 89.5834 51.4584 89.5834 50C89.5834 48.5417 88.9584 47.0834 87.9167 46.0417Z" fill="#F4511E"/>
</svg>
