<svg width="100" height="100" viewBox="0 0 100 100" fill="none" xmlns="http://www.w3.org/2000/svg">
<path d="M87.5 77.0833C87.5 82.8375 82.8375 87.5 77.0833 87.5H22.9167C17.1646 87.5 12.5 82.8375 12.5 77.0833V22.9167C12.5 17.1625 17.1646 12.5 22.9167 12.5H77.0833C82.8375 12.5 87.5 17.1625 87.5 22.9167V77.0833Z" fill="#0078D4"/>
<path opacity="0.05" d="M62.5 77.0833V56.0437C62.5 52.525 60.7938 50.4229 57.9334 50.4229C56.2354 50.4229 54.9875 51.3792 54.2271 53.2646C54.1917 53.3979 54.1417 53.9417 54.1625 55.5854L54.1667 77.0833H39.5834V37.5H54.1667V39.7104C56.2959 38.2417 58.9063 37.5 61.9542 37.5C71.4271 37.5 77.0813 43.9438 77.0813 54.7375L77.0834 77.0833H62.5ZM22.9167 77.0833V37.5H30.1188C25.9459 37.5 22.9167 34.4333 22.9167 30.2062C22.9167 25.9833 25.9959 22.9167 30.2375 22.9167C34.4292 22.9167 37.4146 25.8979 37.5 30.1646C37.5 34.4229 34.4188 37.5 30.1771 37.5H37.5V77.0833H22.9167Z" fill="black"/>
<path opacity="0.07" d="M63.5416 76.0417V56.0437C63.5416 51.9333 61.3937 49.3812 57.9333 49.3812C55.2354 49.3812 53.9021 51.2812 53.2604 52.875C53.0896 53.2896 53.1125 54.9354 53.1208 55.6375L53.125 76.0417H40.625V38.5417H53.125V41.9542C54.7812 40.2396 57.4479 38.5417 61.9541 38.5417C70.7729 38.5417 76.0396 44.5958 76.0396 54.7375L76.0416 76.0417H63.5416ZM23.9583 76.0417V38.5417H36.4583V76.0417H23.9583ZM30.1187 36.4583C26.55 36.4583 23.9583 33.8292 23.9583 30.2062C23.9583 26.5854 26.6 23.9583 30.2375 23.9583C33.8291 23.9583 36.3854 26.5188 36.4583 30.1854C36.4583 33.8292 33.8166 36.4583 30.1771 36.4583H30.1187Z" fill="black"/>
<path d="M25 39.5833H35.4167V75H25V39.5833ZM30.1771 35.4167H30.1187C27.0104 35.4167 25 33.1 25 30.2062C25 27.25 27.0729 25 30.2375 25C33.4062 25 35.3583 27.25 35.4167 30.2062C35.4167 33.0979 33.4062 35.4167 30.1771 35.4167ZM75 75H64.5833V56.0437C64.5833 51.4646 62.0312 48.3396 57.9333 48.3396C54.8062 48.3396 53.1146 50.4479 52.2937 52.4854C51.9937 53.2146 52.0833 55.2312 52.0833 56.25V75H41.6667V39.5833H52.0833V45.0333C53.5854 42.7083 55.9375 39.5833 61.9542 39.5833C69.4083 39.5833 74.9979 44.2708 74.9979 54.7375L75 75Z" fill="white"/>
</svg>
