<svg width="100" height="100" viewBox="0 0 100 100" fill="none" xmlns="http://www.w3.org/2000/svg">
<path d="M21.6859 15.9539C15.9422 24.2078 16.657 34.9476 21.0453 43.7195L21.3664 44.343L21.5719 44.7383L21.7 44.9656L21.9289 45.375C22.0648 45.6148 22.2047 45.8531 22.3476 46.093L22.5867 46.4867C22.7453 46.7414 22.907 46.9945 23.0726 47.2469L23.2797 47.5664C23.5086 47.9078 23.7422 48.2476 23.9836 48.5828L24.0039 48.6086L24.1226 48.7687C24.3312 49.0562 24.5461 49.3406 24.764 49.6226L25.0054 49.9297C25.2 50.1742 25.3976 50.4164 25.5984 50.6594L25.825 50.9297C26.0945 51.2469 26.3703 51.564 26.6508 51.8734L26.6672 51.8906L26.6992 51.9258C26.9734 52.225 27.2539 52.518 27.539 52.8109L27.8078 53.082C28.0281 53.3039 28.2523 53.5219 28.4781 53.7391L28.7523 54C29.0547 54.2844 29.3594 54.564 29.6711 54.8359L29.6851 54.8484L29.8453 54.9844C30.1195 55.2226 30.3984 55.457 30.6797 55.689L31.025 55.9648C31.2547 56.1484 31.4867 56.3305 31.7203 56.5086L32.0929 56.7906C32.3508 56.9805 32.6109 57.1672 32.8734 57.3508L33.157 57.5523L33.2359 57.6086C33.4844 57.7805 33.7398 57.9453 33.9937 58.1101L34.3219 58.3289C34.7125 58.575 35.1086 58.8195 35.5086 59.0555L35.8367 59.2406C36.1312 59.4101 36.4273 59.5773 36.7273 59.7398L37.2203 59.9945L37.8578 60.3258L38.0047 60.3969L38.2656 60.5226C38.5992 60.682 38.9359 60.8391 39.2758 60.9906L39.489 61.0859C39.8781 61.2562 40.2711 61.4195 40.6672 61.5765L40.9547 61.689C41.3211 61.8312 41.6929 61.9695 42.0664 62.1008L42.2062 62.1492C42.6156 62.293 43.0297 62.425 43.4461 62.5555L43.7453 62.6445C44.1687 62.7726 44.5883 62.9242 45.025 63.0055C72.8008 68.0703 80.8687 46.3148 80.8687 46.3148C74.0922 55.143 62.0648 57.4711 50.6687 54.8789C50.2367 54.7812 49.8179 54.6461 49.3969 54.5226L49.0797 54.4258C48.6687 54.3 48.2601 54.168 47.8547 54.0273L47.6867 53.9672C47.3234 53.8391 46.9648 53.7047 46.607 53.5664L46.3039 53.4476C45.9125 53.293 45.5226 53.1312 45.1383 52.9633L44.9054 52.8594C44.575 52.7101 44.2476 52.5594 43.9219 52.4023L43.6375 52.2656C43.382 52.1414 43.1297 52.0094 42.8765 51.8789L42.3695 51.6125C42.0609 51.4484 41.7586 51.2766 41.4578 51.1016L41.15 50.9305C40.7492 50.6937 40.3539 50.45 39.9625 50.2023L39.6422 49.9891C39.3586 49.8062 39.0758 49.6195 38.7976 49.4273L38.525 49.2359C38.2562 49.0469 37.9898 48.8539 37.7265 48.6594L37.3726 48.3914C37.1304 48.2062 36.8898 48.0195 36.6523 47.8281L36.3312 47.5703C36.0281 47.3219 35.7289 47.0703 35.4336 46.8133L35.3351 46.7312C35.0156 46.4508 34.7015 46.1625 34.3914 45.8734L34.1258 45.6172C33.8961 45.3992 33.6695 45.1789 33.4476 44.9523L33.182 44.6867C32.8992 44.3976 32.6219 44.1047 32.35 43.807L32.3086 43.7625C32.0211 43.4484 31.7398 43.1273 31.4648 42.8023L31.2437 42.5398C31.0383 42.293 30.8351 42.0414 30.6367 41.7891L30.414 41.5117C30.1742 41.2015 29.9414 40.8922 29.7125 40.5781C23.3859 31.9476 21.1125 20.0445 26.1695 10.2695M39.514 8.99921C35.3609 14.9758 35.5859 22.9781 38.8265 29.2984C39.3695 30.3578 39.9804 31.3867 40.6633 32.3648C41.2851 33.2578 41.9758 34.3187 42.8015 35.0351C43.1008 35.3648 43.414 35.6867 43.7336 36.0023L43.9789 36.2453C44.289 36.5461 44.6047 36.8422 44.9304 37.1297L44.9695 37.1633L44.9789 37.1726C45.3398 37.4891 45.7125 37.793 46.0906 38.093L46.3429 38.2898C46.7226 38.5805 47.1094 38.8664 47.5062 39.139L47.5398 39.1648L48.0711 39.514L48.3226 39.6805C48.6062 39.8625 48.8929 40.0391 49.1851 40.2086L49.307 40.2805C49.5586 40.425 49.8133 40.5672 50.0687 40.7062L50.3398 40.8469L50.8726 41.1234L50.9531 41.1601C51.3195 41.3398 51.6883 41.514 52.0656 41.6781L52.3109 41.7797C52.6125 41.907 52.9164 42.032 53.2226 42.1492L53.6133 42.293C53.8914 42.3961 54.1695 42.4906 54.4508 42.5844L54.8289 42.7055C55.2281 42.8289 55.6234 42.9859 56.039 43.0555C77.4844 46.6078 82.4351 30.0961 82.4351 30.0961C77.9726 36.5242 69.3297 39.5906 60.107 37.1969C59.6976 37.0891 59.2929 36.9719 58.8922 36.8461L58.5273 36.7281C58.2422 36.6367 57.9586 36.5383 57.6781 36.4359L57.2945 36.293C56.9867 36.1742 56.682 36.0516 56.3797 35.9234L56.1336 35.8195C55.7547 35.6547 55.382 35.4805 55.0148 35.2992L54.4539 35.0141L54.1305 34.8476C53.8914 34.718 53.6539 34.5836 53.4203 34.4461L53.2508 34.35C52.9601 34.1805 52.6742 34.0062 52.3914 33.825L52.132 33.6523L51.5758 33.2836C51.1804 33.0109 50.7953 32.7258 50.4164 32.4359L50.1554 32.2297C46.1187 29.043 42.9187 24.6867 41.3976 19.7476C39.8031 14.625 40.1469 8.87499 42.9094 4.2078M54.5086 3.80311C52.0601 7.40624 51.8195 11.882 53.5187 15.8617C55.3101 20.0859 58.9812 23.3992 63.2664 24.9711L63.7992 25.1547L64.0336 25.2297C64.2859 25.3094 64.5367 25.4016 64.7976 25.45C76.639 27.7383 79.8508 19.3742 80.7054 18.1422C77.8922 22.193 73.164 23.1656 67.3625 21.757C66.9047 21.6461 66.4008 21.4805 65.9594 21.3234C65.3929 21.1211 64.8351 20.8914 64.2922 20.6312C63.2625 20.1359 62.2804 19.5359 61.3695 18.8484C56.1781 14.9094 52.9539 7.39608 56.3414 1.27655" fill="#0868AC"/>
<path d="M51.843 75.2305H48.5414C48.3586 75.2305 48.1766 75.3773 48.1375 75.5563L46.9656 80.9781L45.7938 86.4C45.7555 86.5789 45.5734 86.7258 45.3906 86.7258H43.0539C40.7422 86.7258 41.0094 85.1266 41.4828 82.9359L41.4969 82.8695L41.5484 82.593L41.5578 82.5414L41.6633 81.9789L41.7766 81.3766L41.8969 80.7633L42.4297 78.1602L42.9633 75.557C43 75.3773 42.8797 75.2297 42.6969 75.2297H39.3086C39.1258 75.2297 38.9445 75.3766 38.907 75.5563L38.1781 79.0125L37.45 82.4695L37.4484 82.4742L37.3813 82.7961C36.5422 86.6266 36.7641 90.2805 41.325 90.3953L41.4578 90.3977H48.6164C48.7992 90.3977 48.9813 90.2508 49.0195 90.0719L50.5633 82.8148L52.107 75.557C52.1453 75.3773 52.0266 75.2313 51.843 75.2305ZM16.4867 75.1922H12.8617C12.6781 75.1922 12.4953 75.3391 12.4547 75.5172L12.1109 77.0344L11.7672 78.5516C11.7273 78.7305 11.8438 78.8766 12.0273 78.8766H15.6805C15.8641 78.8766 16.0461 78.7297 16.0852 78.5508L16.4172 77.0344L16.7492 75.518C16.7875 75.3391 16.6703 75.1922 16.4867 75.1922ZM15.4352 79.9141H11.7813C11.5984 79.9141 11.4148 80.0609 11.3742 80.2391L10.8609 82.5125L10.3484 84.7852L10.2055 85.4367L9.7125 87.757L9.22032 90.0781C9.18203 90.257 9.10313 90.5461 9.04453 90.7195C9.04453 90.7195 8.36172 92.7508 7.21407 92.7273L7.07032 92.7242L6.07735 92.7063C5.89453 92.7039 5.71016 92.8469 5.66719 93.0242L5.28828 94.6172L4.91016 96.2094C4.86719 96.3875 4.98282 96.5344 5.16485 96.5375C5.81563 96.5453 7.27344 96.5617 8.15547 96.5617C11.0219 96.5617 12.5336 94.9734 13.5016 90.4031L14.6352 85.1578L15.6984 80.2383C15.7367 80.0609 15.618 79.9141 15.4352 79.9141ZM82.7141 78.6844L82.5625 78.0586L82.4133 77.418L82.3375 77.0945C82.0406 75.9406 81.1695 75.2758 79.2773 75.2758L76.332 75.2727L73.6195 75.2688H70.5672C70.3844 75.2688 70.2031 75.4156 70.1648 75.5945L70.0297 76.232L69.8703 76.9852L69.8258 77.1969L68.4516 83.6344L67.1469 89.7453C67.1078 89.925 67.0953 90.1453 67.1172 90.2344C67.1391 90.3242 67.4914 90.3977 67.6742 90.3977H70.4273C70.6109 90.3977 70.843 90.3648 70.943 90.3242C71.043 90.2836 71.1906 89.9234 71.2273 89.7445L71.7164 87.3234L72.2063 84.9016L72.207 84.8977L72.2727 84.575L72.8664 81.7938L73.3906 79.3375C73.4297 79.1586 73.6102 79.0125 73.793 79.0117L82.4563 79.0078C82.6398 79.0094 82.7555 78.8633 82.7141 78.6844ZM93.8664 73.0281L93.1992 73.0305H90.4266C90.243 73.0305 90.0078 73.1547 89.9055 73.3063L83.7734 82.2891C83.6703 82.4406 83.5523 82.4188 83.5117 82.2406L83.0602 80.2617C83.0195 80.0828 82.8359 79.9367 82.6523 79.9367H78.7109C78.5273 79.9367 78.4188 80.0805 78.4688 80.2563L80.2352 86.4445C80.2852 86.6211 80.2891 86.9102 80.2438 87.0883L79.4742 90.0828C79.4281 90.2609 79.5406 90.4055 79.7242 90.4055H83.6203C83.8031 90.4055 83.9906 90.2602 84.0359 90.0828L84.8063 87.0883C84.8516 86.9094 84.9789 86.6453 85.0898 86.4984L95.0445 73.2867C95.1555 73.1398 95.0953 73.0203 94.9125 73.0219L93.8664 73.0281ZM62.5492 80.7773V80.7742C62.5266 80.9727 62.343 81.1188 62.1594 81.1188H57.1617C56.9883 81.1188 56.9008 81.0016 56.9266 80.8563L56.9313 80.8445L56.9281 80.8461L56.9305 80.8297L56.9531 80.7445C57.4305 79.4758 58.4023 78.643 60.2297 78.643C62.2875 78.6422 62.6891 79.6469 62.5492 80.7773ZM61.0828 75.0086C54.668 75.0086 53.1477 78.9023 52.2945 82.8328C51.4422 86.8391 51.5148 90.5836 58.1539 90.5836H58.9586L59.1586 90.5828H59.2055L60.0023 90.5805H60.0164C61.7695 90.5734 63.5281 90.5602 64.2398 90.5547C64.4219 90.5516 64.6 90.4055 64.6375 90.2266L64.9063 88.9133L64.9586 88.6578L65.2789 87.0906C65.3156 86.9117 65.1961 86.7641 65.0125 86.7641H59.0445C56.6703 86.7641 55.9656 86.1336 56.2258 84.2789H65.7656L65.7648 84.2797L65.7711 84.2789C65.9227 84.2766 66.0633 84.1719 66.1188 84.0328L66.1414 83.95L66.1406 83.9508C67.557 78.6078 67.1508 75.0094 61.0828 75.0086ZM30.7625 80.757L30.6719 81.0766L29.9516 83.6305L29.2313 86.1828C29.182 86.3602 28.9906 86.5039 28.807 86.5039H24.9945C22.1023 86.5039 21.3977 84.2414 22.1023 80.9055C22.8063 77.493 24.1867 75.3719 27.0336 75.157C30.9242 74.8633 31.7023 77.5992 30.7625 80.757ZM33.3781 86.3078C33.3781 86.3078 35.1758 81.9422 35.5836 79.4219C36.1406 76.0477 34.4508 71.1523 27.9242 71.1523C21.4352 71.1523 18.6164 75.825 17.5414 80.9055C16.4664 86.0227 17.875 90.5094 24.3273 90.4727L29.418 90.4539L34.175 90.4367C34.3578 90.4352 34.5453 90.2898 34.5922 90.1133L35.4211 86.9523C35.4672 86.7742 35.3555 86.6289 35.1719 86.6273L34.3773 86.6227L33.5828 86.618C33.4273 86.6172 33.3383 86.5156 33.357 86.382L33.3781 86.3078ZM65.5031 83.3852C65.5031 83.5063 65.4055 83.6047 65.2844 83.6047C65.1641 83.6047 65.0656 83.5063 65.0656 83.3852C65.0656 83.2648 65.1633 83.1672 65.2844 83.1672C65.4055 83.1672 65.5031 83.2648 65.5031 83.3852Z" fill="#131B28"/>
</svg>
