<svg width="92" height="41" viewBox="0 0 92 41" fill="none" xmlns="http://www.w3.org/2000/svg">
<rect y="1" width="42" height="28" rx="10" fill="#F6DD54"/>
<path d="M35.6797 25.002L35.1875 33H12.2129V31.6289C12.623 31.5938 13.1035 31.541 13.6543 31.4707C14.2051 31.3887 14.5684 31.3125 14.7441 31.2422C15.166 31.0781 15.459 30.8496 15.623 30.5566C15.7871 30.2637 15.8691 29.8887 15.8691 29.4316V11.8359C15.8691 11.4141 15.8047 11.0684 15.6758 10.7988C15.5469 10.5176 15.2363 10.2656 14.7441 10.043C14.3809 9.87891 13.9414 9.75 13.4258 9.65625C12.9219 9.55078 12.5176 9.47461 12.2129 9.42773V8.05664H25.9062V9.42773C25.5312 9.46289 25.0859 9.51562 24.5703 9.58594C24.0664 9.64453 23.627 9.73242 23.252 9.84961C22.7949 10.002 22.4902 10.2422 22.3379 10.5703C22.1855 10.8867 22.1094 11.25 22.1094 11.6602V28.0605C22.1094 28.834 22.1621 29.4434 22.2676 29.8887C22.373 30.334 22.5781 30.6621 22.8828 30.873C23.1875 31.0957 23.6094 31.2422 24.1484 31.3125C24.6992 31.3711 25.4551 31.4004 26.416 31.4004C27.3535 31.4004 28.2617 31.3477 29.1406 31.2422C30.0312 31.125 30.6699 30.8789 31.0566 30.5039C31.6543 29.9062 32.2637 29.0684 32.8848 27.9902C33.5176 26.9004 34.0215 25.9043 34.3965 25.002H35.6797ZM59.6387 32.6309L51.2539 33.1406L50.9902 32.8945V30.5918H50.8848C50.4863 30.9551 50.0938 31.3125 49.707 31.6641C49.332 32.0039 48.8809 32.3145 48.3535 32.5957C47.7559 32.9121 47.1875 33.1465 46.6484 33.2988C46.1211 33.4512 45.3477 33.5273 44.3281 33.5273C42.5586 33.5273 41.1992 32.9941 40.25 31.9277C39.3125 30.8613 38.8438 29.3555 38.8438 27.4102V19.5C38.8438 19.043 38.7559 18.6738 38.5801 18.3926C38.4043 18.0996 38.1699 17.8418 37.877 17.6191C37.6426 17.4434 37.3379 17.3203 36.9629 17.25C36.5879 17.168 36.248 17.1152 35.9434 17.0918V15.8086L44.4688 15.3516L44.6621 15.6152V27.3047C44.6621 28.5117 44.8906 29.4023 45.3477 29.9766C45.8164 30.5508 46.4551 30.8379 47.2637 30.8379C48.0957 30.8379 48.8398 30.6211 49.4961 30.1875C50.1641 29.7539 50.6504 29.291 50.9551 28.7988V19.3242C50.9551 18.9258 50.8789 18.5684 50.7266 18.252C50.5742 17.9355 50.3516 17.6777 50.0586 17.4785C49.8477 17.3379 49.543 17.2441 49.1445 17.1973C48.7578 17.1504 48.3594 17.1152 47.9492 17.0918V15.8086L56.4746 15.3516L56.7383 15.6152V29.1855C56.7383 29.5957 56.8203 29.9473 56.9844 30.2402C57.1484 30.5215 57.3887 30.7617 57.7051 30.9609C57.9277 31.1016 58.2148 31.2012 58.5664 31.2598C58.9297 31.3066 59.2871 31.3359 59.6387 31.3477V32.6309ZM72.1719 33H61.0625V31.7168C61.3672 31.6934 61.666 31.6641 61.959 31.6289C62.252 31.5938 62.5039 31.5352 62.7148 31.4531C63.0898 31.3125 63.3535 31.1133 63.5059 30.8555C63.6582 30.5859 63.7344 30.2344 63.7344 29.8008V19.5703C63.7344 19.1602 63.6406 18.8027 63.4531 18.498C63.2656 18.1816 63.0312 17.9297 62.75 17.7422C62.5391 17.6016 62.2168 17.4668 61.7832 17.3379C61.3613 17.209 60.9746 17.127 60.623 17.0918V15.8086L69.2363 15.3516L69.5 15.6152V29.5723C69.5 29.9824 69.5879 30.334 69.7637 30.627C69.9395 30.9082 70.1914 31.1191 70.5195 31.2598C70.7539 31.3652 71.0117 31.459 71.293 31.541C71.5742 31.623 71.8672 31.6816 72.1719 31.7168V33ZM69.6055 9.02344C69.6055 9.91406 69.2598 10.6758 68.5684 11.3086C67.8887 11.9297 67.0801 12.2402 66.1426 12.2402C65.1934 12.2402 64.373 11.9297 63.6816 11.3086C63.002 10.6758 62.6621 9.91406 62.6621 9.02344C62.6621 8.13281 63.002 7.37109 63.6816 6.73828C64.373 6.10547 65.1934 5.78906 66.1426 5.78906C67.0918 5.78906 67.9062 6.10547 68.5859 6.73828C69.2656 7.37109 69.6055 8.13281 69.6055 9.02344ZM90.8398 33H73.543V31.7871L83.6328 17.1621C82.2383 17.1621 80.9844 17.1797 79.8711 17.2148C78.7578 17.25 77.8789 17.3906 77.2344 17.6367C77.0117 17.7188 76.7129 18.1465 76.3379 18.9199C75.9746 19.6816 75.6875 20.4785 75.4766 21.3105H74.2285V15.5625H90.5762V16.6523L80.4512 31.4004C80.7324 31.4004 81.1426 31.4062 81.6816 31.418C82.2207 31.4297 82.7363 31.4355 83.2285 31.4355C83.8027 31.4355 84.418 31.4238 85.0742 31.4004C85.7305 31.3652 86.2402 31.3242 86.6035 31.2773C87.084 31.2188 87.4648 31.0547 87.7461 30.7852C88.0391 30.5156 88.2676 30.1934 88.4316 29.8184C88.584 29.4785 88.7832 28.9688 89.0293 28.2891C89.2754 27.5977 89.4629 26.9824 89.5918 26.4434H90.8398V33Z" fill="#292929"/>
</svg>
