<svg width="100" height="100" viewBox="0 0 100 100" fill="none" xmlns="http://www.w3.org/2000/svg">
<g clip-path="url(#clip0_1_127)">
<path d="M27.2167 81.475C26.6083 81.475 26.0667 81.4375 25.6083 81.3667V83.3875C26.55 83.7625 27.3292 83.95 27.9667 83.95C30.3542 83.95 32.5542 82.4917 34.5625 79.5625C37.1292 75.7708 39.2042 69.6833 40.7792 61.3167H37.1125C36.5259 66.1872 35.3578 70.9699 33.6333 75.5625C33.75 74.6917 33.4625 73.1625 32.7792 70.9708L29.75 61.3167H25.9583L30.1833 74.2292C30.8208 76.1667 31.1417 77.4583 31.1417 78.0917C31.1417 79.0042 30.7333 79.8292 29.9125 80.5667C29.2292 81.1667 28.3333 81.475 27.2167 81.475Z" fill="#105E86"/>
<path d="M81.175 55.3875V78.0083H92.1333V75.225H84.8625V55.3875H81.175Z" fill="#DE8A03"/>
<path d="M4.33333 59.9667H4.375L10.2083 78.0083H13.1458L19.0208 59.9667H19.0542C19.6952 65.961 20.0705 71.9808 20.1792 78.0083H24.0542C23.8157 70.4442 23.2206 62.8956 22.2708 55.3875H17.7083L12.0958 72.0125H12.0625L6.5 55.3875H1.70833C0.76335 62.8947 0.193199 70.4444 0 78.0083H3.52083C3.63333 71.3917 3.90417 65.3792 4.33333 59.9667Z" fill="#105E86"/>
<path d="M77.8292 66.275C77.8292 58.7917 74.8375 55.0417 68.85 55.0417C65.9167 55.0417 63.625 55.9917 61.975 57.8917C60.1833 59.9709 59.2833 63.0292 59.2833 67.075C59.2833 71.05 60.075 73.9708 61.675 75.8292C63.1333 77.5084 65.3292 78.3458 68.2708 78.3458C69.3708 78.3458 70.3792 78.2125 71.2917 77.9459L76.8125 81.1042L78.3125 78.5625H78.3L74.0667 76.5167C74.4417 76.2042 74.8042 75.8709 75.1292 75.4959C76.9333 73.4209 77.8292 70.3459 77.8292 66.275ZM68.65 75.5459C66.7958 75.5459 65.4417 74.8625 64.575 73.5L64.5833 73.4792C63.6458 72.0084 63.1792 69.6334 63.1792 66.3792C63.1792 60.6792 64.9458 57.8292 68.4708 57.8292C70.3167 57.8292 71.6792 58.5125 72.5417 59.875C73.475 61.3542 73.9417 63.7042 73.9417 66.925C73.9417 72.6667 72.175 75.5459 68.65 75.5459ZM55 66.975C55 66.975 51.6917 65.1125 50.0542 64.2334C48.2542 63.25 47.2792 62.0959 47.2792 60.7584C47.2825 60.3466 47.3769 59.9407 47.5555 59.5697C47.7342 59.1987 47.9927 58.8719 48.3125 58.6125C48.9458 58.0459 49.8583 57.7709 51.0375 57.7709C52.4917 57.7709 53.9708 58.0875 55.4708 58.7125L56.3583 56.7667C54.6187 55.6517 52.5911 55.0695 50.525 55.0917C48.4417 55.0917 46.7542 55.65 45.4417 56.7875C44.1375 57.9125 43.4833 59.3834 43.4833 61.225C43.4833 63.4375 44.3583 64.7834 46.1167 66.0417C46.1167 66.0417 49.3458 67.8584 50.9625 68.7292C52.7042 69.6917 53.6625 70.8375 53.6625 72.1875C53.6695 72.6762 53.5597 73.1595 53.3422 73.5972C53.1248 74.0349 52.8061 74.4144 52.4125 74.7042C51.6208 75.3042 50.5333 75.6042 49.15 75.6042C47.6625 75.6042 46.0167 75.1625 44.1917 74.2625L43.2042 76.2084C45.325 77.6125 47.4958 78.3167 49.7583 78.3167C52.1792 78.3167 54.0917 77.7042 55.525 76.475C56.9583 75.25 57.675 73.6709 57.675 71.7459L57.7 71.7584C57.7 69.5542 56.8042 68.225 55 66.975Z" fill="#DE8A03"/>
<path d="M68.3542 24.0334C67.875 24.0334 67.55 24.0917 67.2125 24.1667V24.2209H67.2708C67.4958 24.6459 67.8792 24.9584 68.1625 25.3375C68.3875 25.775 68.5792 26.2125 68.8042 26.6459L68.8625 26.5834C69.2542 26.3125 69.4458 25.8792 69.4458 25.2209C69.2792 25.0292 69.2542 24.8375 69.1125 24.65C68.9458 24.375 68.5875 24.2417 68.3625 24.025L68.3542 24.0334Z" fill="#105E86"/>
<path d="M98.7292 55C97.9077 53.9393 96.9315 53.0081 95.8333 52.2375C94.9417 51.6417 92.9917 50.8042 92.625 49.8042L92.5708 49.7458C93.1792 49.6917 93.9042 49.475 94.4875 49.3125C95.4333 49.0667 96.3 49.1208 97.2792 48.8792C97.7208 48.7708 98.1667 48.6333 98.6125 48.4958V48.25C98.1125 47.7583 97.7375 47.0917 97.2208 46.6333C95.7766 45.3942 94.2386 44.2686 92.6208 43.2667C91.7458 42.7167 90.6375 42.3667 89.7167 41.9C89.3833 41.7375 88.825 41.6542 88.6333 41.3792C88.1333 40.7833 87.8417 39.9875 87.4875 39.275C86.6875 37.7708 85.9042 36.1042 85.2083 34.5167C84.7083 33.4458 84.4042 32.3792 83.7917 31.3958C80.9167 26.7458 77.8042 23.925 73.0167 21.1708C71.9875 20.6 70.7542 20.3542 69.45 20.05C68.7542 20.0167 68.0583 19.9667 67.3667 19.9375C66.9083 19.7458 66.4667 19.225 66.075 18.975C64.4917 17.9917 60.3917 15.8667 59.225 18.6792C58.475 20.4542 60.3375 22.2042 60.9833 23.1042C61.4625 23.7292 62.0667 24.4458 62.4 25.15C62.5958 25.625 62.65 26.1125 62.8458 26.6083C63.2875 27.8125 63.7083 29.15 64.2917 30.2792C64.5958 30.85 64.9292 31.4542 65.3208 31.9667C65.5458 32.2667 65.9292 32.4042 66.0167 32.8958C65.625 33.4542 65.6 34.2625 65.375 34.9417C64.375 38.0375 64.7667 41.8667 66.1833 44.1458C66.6292 44.825 67.6917 46.3292 69.1125 45.7542C70.3625 45.2625 70.0875 43.7083 70.4458 42.3375C70.5292 42.0083 70.475 41.7917 70.6458 41.5708V41.6333C71.0375 42.4042 71.4292 43.1333 71.7875 43.9042C72.6458 45.2458 74.1458 46.6375 75.4 47.5667C76.0667 48.0583 76.5958 48.9083 77.4292 49.2125V49.1292H77.3667C77.1875 48.8917 76.95 48.7792 76.725 48.5833C76.1971 48.0762 75.7095 47.5287 75.2667 46.9458C74.0942 45.3729 73.0532 43.7062 72.1542 41.9625C71.6958 41.1042 71.3125 40.1792 70.9458 39.3333C70.7792 39.0083 70.7792 38.5167 70.5 38.35C70.0833 38.9458 69.4708 39.4667 69.1667 40.2042C68.6375 41.3833 68.5833 42.8292 68.3833 44.3375C68.2708 44.3667 68.325 44.3375 68.2708 44.3958C67.3792 44.1833 67.075 43.275 66.7417 42.5125C65.9083 40.5708 65.7708 37.45 66.4917 35.2083C66.6875 34.6375 67.5208 32.8292 67.1875 32.2792C67.0125 31.7583 66.4625 31.4625 66.1583 31.0417C65.7682 30.4941 65.4332 29.9094 65.1583 29.2958C64.4917 27.7667 64.1583 26.0708 63.4333 24.5417C63.1 23.8333 62.5167 23.0917 62.0417 22.4417C61.5125 21.7042 60.9292 21.1875 60.5083 20.3125C60.3708 20.0125 60.175 19.5167 60.3958 19.1917C60.4542 18.9708 60.5708 18.8833 60.7875 18.825C61.1542 18.5292 62.1833 18.9167 62.5458 19.0792C63.575 19.4875 64.4417 19.8708 65.3042 20.4458C65.6958 20.7167 66.1167 21.2333 66.6167 21.3708H67.2C68.0917 21.5625 69.0958 21.4292 69.9292 21.6708C71.4083 22.1375 72.7417 22.8167 73.9375 23.5542C77.6079 25.8493 80.6053 29.0753 82.625 32.9042C82.9583 33.5333 83.1042 34.1125 83.4083 34.7667C83.9917 36.1167 84.7125 37.4792 85.3042 38.7833C85.8875 40.0708 86.45 41.3875 87.2875 42.4542C87.7042 43.025 89.3792 43.325 90.1292 43.625C90.6833 43.8708 91.5458 44.0958 92.0458 44.3958C93.0042 44.9667 93.9375 45.625 94.8375 46.2542C95.2958 46.5667 96.6833 47.25 96.7667 47.8C94.5375 47.7417 92.8083 47.9625 91.3625 48.5708C90.9458 48.7333 90.2792 48.7333 90.2208 49.2542C90.45 49.4708 90.4833 49.825 90.6792 50.1292C91.0125 50.675 91.5875 51.4083 92.1208 51.7958C92.7042 52.2458 93.2875 52.6791 93.9 53.0625C94.9833 53.7167 96.2125 54.1042 97.275 54.7625C97.8792 55.1458 98.4958 55.6333 99.1083 56.0417C99.4125 56.2458 99.6083 56.6167 100 56.7458V56.6667C99.8083 56.4208 99.75 56.0667 99.5625 55.7917C99.2833 55.5167 99.0042 55.2708 98.7292 55Z" fill="#105E86"/>
</g>
<defs>
<clipPath id="clip0_1_127">
<rect width="100" height="100" fill="white"/>
</clipPath>
</defs>
</svg>
