<svg width="100" height="100" viewBox="0 0 100 100" fill="none" xmlns="http://www.w3.org/2000/svg">
<path d="M46.7254 0.0269104C46.5104 0.0464577 45.8258 0.114874 45.21 0.163743C31.0068 1.4441 17.7028 9.1067 9.27662 20.8841C4.58454 27.4325 1.58358 34.8605 0.449658 42.7283C0.0488758 45.475 0 46.2861 0 50.0097C0 53.7338 0.0488758 54.5449 0.449658 57.2912C3.16715 76.0667 16.5298 91.8415 34.653 97.6861C37.8983 98.7317 41.3197 99.4454 45.21 99.8753C46.7254 100.042 53.2746 100.042 54.79 99.8753C61.5054 99.1325 67.1946 97.4711 72.8054 94.6074C73.6658 94.1674 73.8317 94.0504 73.7146 93.9525C73.6362 93.8937 69.9708 88.9778 65.5717 83.0353L57.5758 72.2352L47.5562 57.4086C42.0429 49.2573 37.5073 42.5917 37.4683 42.5917C37.4291 42.5817 37.39 49.1694 37.3705 57.2128C37.3412 71.297 37.3314 71.864 37.1554 72.1961C36.9013 72.6752 36.7057 72.8705 36.2952 73.0855C35.9824 73.2422 35.7087 73.2713 34.2327 73.2713H32.5415L32.0919 72.988C31.7986 72.8022 31.5836 72.5577 31.437 72.2744L31.2317 71.8344L31.2512 52.2382L31.2805 32.6321L31.5836 32.2509C31.74 32.0457 32.0723 31.7818 32.307 31.6547C32.7077 31.4593 32.8641 31.4397 34.5552 31.4397C36.5494 31.4397 36.8817 31.5179 37.3998 32.0847C37.5464 32.2411 42.9717 40.412 49.4625 50.2543C55.9529 60.0962 64.8288 73.535 69.1888 80.1324L77.1067 92.1248L77.5075 91.8611C81.0558 89.5543 84.8096 86.2702 87.7808 82.8495C94.1054 75.5876 98.1817 66.7327 99.5504 57.2912C99.9512 54.5449 100 53.7338 100 50.0097C100 46.2861 99.9512 45.475 99.5504 42.7283C96.8329 23.953 83.47 8.17822 65.3471 2.33351C62.1504 1.2975 58.7487 0.584014 54.9367 0.153969C53.9979 0.0562317 47.5367 -0.0512796 46.7254 0.0269104ZM67.1946 30.2668C67.6637 30.5014 68.045 30.951 68.1817 31.4201C68.26 31.6743 68.2796 37.1085 68.26 49.3548L68.2308 66.9281L65.1321 62.178L62.0233 57.4282V44.6539C62.0233 36.395 62.0625 31.7525 62.1212 31.5277C62.2775 30.9803 62.6196 30.5503 63.0887 30.2962C63.4896 30.0909 63.6362 30.0714 65.1712 30.0714C66.6179 30.0714 66.8721 30.0909 67.1946 30.2668Z" fill="black"/>
</svg>
