<svg width="100" height="100" viewBox="0 0 100 100" fill="none" xmlns="http://www.w3.org/2000/svg">
<path d="M49.4575 100C49.1185 100 48.802 99.8523 48.5081 99.5939L45.5018 96.6777C45.0497 96.2717 45.2758 96.124 45.4114 96.0502C46.0217 95.7179 46.1347 95.6441 46.7676 95.0535C46.8355 94.9797 46.9259 95.0166 46.9937 95.0904L49.2993 97.3422C49.3897 97.416 49.5027 97.416 49.5705 97.3422L58.5895 88.815C58.6799 88.7412 58.7251 88.5936 58.7251 88.409V71.3916C58.7251 71.2071 58.6799 71.0594 58.5895 70.9856L49.5705 62.4954C49.4801 62.4215 49.3671 62.4215 49.2993 62.4954L40.2803 70.9856C40.1899 71.0594 40.1447 71.244 40.1447 71.3916V88.409C40.1447 88.5566 40.1899 88.7412 40.2803 88.815L42.7441 91.1406C44.0778 92.248 44.9141 90.956 44.9141 89.6641V72.8682C44.9141 72.6467 45.0271 72.4252 45.1854 72.4252H46.3382C46.4738 72.4252 46.6094 72.6098 46.6094 72.8682V89.6641C46.6094 92.5803 45.6374 94.2783 43.9421 94.2783C43.4223 94.2783 43.0154 94.2783 41.8626 93.3555L39.4892 91.1406C38.9015 90.5869 38.5398 89.5533 38.5398 88.4459V71.4285C38.5398 70.3211 38.9015 69.2875 39.4892 68.7338L48.5081 60.2067C49.0732 59.6899 49.8418 59.6899 50.4069 60.2067L59.4259 68.7338C60.0136 69.2875 60.3752 70.3211 60.3752 71.4285V88.4459C60.3752 89.5533 60.0136 90.5869 59.4259 91.1406L50.4069 99.6677C50.113 99.8892 49.774 100 49.4575 100ZM52.2378 88.2982C48.2821 88.2982 47.4684 85.3451 47.4684 82.835C47.4684 82.6135 47.5814 82.392 47.7396 82.392H48.915C49.0506 82.392 49.1637 82.5397 49.1637 82.7611C49.3445 84.7176 49.8644 85.6773 52.2604 85.6773C54.1591 85.6773 54.9729 84.976 54.9729 83.3149C54.9729 82.3551 54.7468 81.6537 51.7857 81.1738C49.3219 80.7678 47.7848 79.8818 47.7848 76.6703C47.7848 73.6803 49.3219 71.9084 51.8987 71.9084C54.7921 71.9084 56.2161 73.5326 56.3969 77.0764C56.3969 77.1871 56.3743 77.2979 56.3291 77.4086C56.2839 77.4824 56.2161 77.5563 56.1483 77.5563H54.9729C54.8599 77.5563 54.7468 77.4086 54.7242 77.224C54.453 75.1938 53.7523 74.5293 51.8987 74.5293C49.8192 74.5293 49.5705 75.7106 49.5705 76.5965C49.5705 77.667 49.8644 77.9992 52.6673 78.5899C55.4476 79.1805 56.7586 80.0295 56.7586 83.2041C56.736 86.4525 55.1085 88.2982 52.2378 88.2982Z" fill="#539E43"/>
<path d="M21.4738 33.4441C21.4738 32.7797 21.2477 32.1521 20.8861 31.8199L11.302 22.8129C11.1438 22.6652 10.9629 22.5914 10.7821 22.5545H10.6917C10.5108 22.5545 10.33 22.6652 10.1718 22.8129L0.587703 31.8199C0.22604 32.1521 0 32.7797 0 33.4441L0.022604 57.6597C0.022604 57.9919 0.135624 58.3241 0.316456 58.4718C0.497287 58.6564 0.723327 58.6564 0.881555 58.4718L6.57776 53.1562C6.93942 52.824 7.16546 52.1964 7.16546 51.532V40.1994C7.16546 39.5349 7.3915 38.9074 7.75316 38.5752L10.1718 36.2865C10.3526 36.1019 10.5561 36.0281 10.7595 36.0281C10.9629 36.0281 11.1664 36.1019 11.3246 36.2865L13.7432 38.5752C14.1049 38.9074 14.3309 39.5349 14.3309 40.1994V51.532C14.3309 52.1964 14.557 52.824 14.9186 53.1562L20.6148 58.4718C20.7957 58.6564 21.0217 58.6564 21.2025 58.4718C21.3834 58.3241 21.4964 57.9919 21.4964 57.6597L21.4738 33.4441Z" fill="#333333"/>
<path d="M67.5407 0.110742C67.3599 -0.036914 67.1338 -0.036914 66.9756 0.110742C66.7948 0.295312 66.6818 0.590624 66.6818 0.922849V24.9169C66.6818 25.1384 66.6139 25.3599 66.4783 25.5076C66.3427 25.6183 66.2071 25.6183 66.0715 25.5076L63.6754 23.2558C63.3138 22.9236 62.8843 22.9236 62.5226 23.2558L52.9385 32.2997C52.5769 32.632 52.3508 33.2595 52.3508 33.9239V51.9749C52.3508 52.6393 52.5769 53.2669 52.9385 53.5991L62.5226 62.643C62.8843 62.9752 63.3138 62.9752 63.6754 62.643L73.2595 53.5991C73.6212 53.2669 73.8472 52.6393 73.8472 51.9749V6.97674C73.8472 6.27538 73.6212 5.64784 73.2595 5.31561L67.5407 0.110742ZM66.6592 46.0317C66.6592 46.2163 66.614 46.364 66.5235 46.4378L63.246 49.5386C63.1555 49.6124 63.0425 49.6124 62.9521 49.5386L59.6745 46.4378C59.5841 46.364 59.5389 46.1794 59.5389 46.0317V39.8302C59.5389 39.6456 59.5841 39.498 59.6745 39.4241L62.9521 36.3234C63.0425 36.2495 63.1555 36.2495 63.246 36.3234L66.5235 39.4241C66.614 39.498 66.6592 39.6825 66.6592 39.8302V46.0317Z" fill="#333333"/>
<path d="M99.4349 39.6825C99.7966 39.3503 100 38.7228 100 38.0583V33.6656C100 33.0011 99.7739 32.3736 99.4349 32.0413L89.9186 23.0343C89.557 22.7021 89.1275 22.7021 88.7658 23.0343L79.1817 32.0783C78.8201 32.4105 78.594 33.038 78.594 33.7025V51.7534C78.594 52.4179 78.8201 53.0454 79.1817 53.3776L88.698 62.237C89.0597 62.5692 89.4891 62.5692 89.8282 62.237L95.5922 56.9952C95.773 56.8475 95.8861 56.5153 95.8861 56.1831C95.8861 55.8509 95.773 55.5186 95.5922 55.371L85.9629 46.327C85.7821 46.1425 85.6691 45.8472 85.6691 45.5149V39.8671C85.6691 39.5349 85.7821 39.2026 85.9629 39.055L88.9692 36.2495C89.1501 36.065 89.3761 36.065 89.557 36.2495L92.5633 39.055C92.7441 39.2396 92.8571 39.5349 92.8571 39.8671V44.2968C92.8571 44.629 92.9701 44.9612 93.151 45.1089C93.3318 45.2935 93.5579 45.2935 93.7387 45.1089L99.4349 39.6825Z" fill="#333333"/>
<path d="M89.1953 38.8335C89.2631 38.7597 89.3535 38.7597 89.4213 38.8335L91.2522 40.5685C91.32 40.6423 91.3652 40.753 91.3652 40.9007V44.3706C91.3652 44.5183 91.32 44.629 91.2522 44.7028L89.4213 46.4378C89.3535 46.5116 89.2631 46.5116 89.1953 46.4378L87.3643 44.7028C87.2965 44.629 87.2513 44.5183 87.2513 44.3706V40.9007C87.2513 40.753 87.2965 40.6423 87.3643 40.5685L89.1953 38.8335Z" fill="#539E43"/>
<path d="M37.5 23.1082C37.1383 22.776 36.7088 22.776 36.3472 23.1082L26.8309 32.0783C26.4692 32.4105 26.2658 33.038 26.2658 33.7025V51.6796C26.2658 52.3441 26.4918 52.9716 26.8309 53.3038L36.3472 62.2739C36.7088 62.6061 37.1383 62.6061 37.5 62.2739L47.0163 53.3038C47.3779 52.9716 47.5814 52.3441 47.5814 51.6796V33.7025C47.5814 33.038 47.3553 32.4105 47.0163 32.0783L37.5 23.1082Z" fill="url(#paint0_linear_1_59)"/>
<mask id="mask0_1_59" style="mask-type:luminance" maskUnits="userSpaceOnUse" x="26" y="22" width="22" height="41">
<path d="M37.5 23.1082C37.1383 22.776 36.7088 22.776 36.3472 23.1082L26.8309 32.0783C26.4692 32.4105 26.2658 33.038 26.2658 33.7025V51.6796C26.2658 52.3441 26.4918 52.9716 26.8309 53.3038L36.3472 62.2739C36.7088 62.6061 37.1383 62.6061 37.5 62.2739L47.0163 53.3038C47.3779 52.9716 47.5814 52.3441 47.5814 51.6796V33.7025C47.5814 33.038 47.3553 32.4105 47.0163 32.0783L37.5 23.1082Z" fill="white"/>
</mask>
<g mask="url(#mask0_1_59)">
<path d="M47.0389 32.0782L37.4774 23.1081C37.387 23.0343 37.2739 22.9604 37.1835 22.9235L26.4692 52.8977C26.5597 53.0822 26.6727 53.2299 26.7857 53.3406L36.3472 62.3107C36.6184 62.5691 36.9349 62.643 37.2287 62.4953L47.2875 32.4473C47.2197 32.2997 47.1293 32.1889 47.0389 32.0782Z" fill="url(#paint1_linear_1_59)"/>
</g>
<mask id="mask1_1_59" style="mask-type:luminance" maskUnits="userSpaceOnUse" x="26" y="22" width="22" height="41">
<path d="M37.5 23.1082C37.1383 22.776 36.7088 22.776 36.3472 23.1082L26.8309 32.0783C26.4692 32.4105 26.2658 33.038 26.2658 33.7025V51.6796C26.2658 52.3441 26.4918 52.9716 26.8309 53.3038L36.3472 62.2739C36.7088 62.6061 37.1383 62.6061 37.5 62.2739L47.0163 53.3038C47.3779 52.9716 47.5814 52.3441 47.5814 51.6796V33.7025C47.5814 33.038 47.3553 32.4105 47.0163 32.0783L37.5 23.1082Z" fill="white"/>
</mask>
<g mask="url(#mask1_1_59)">
<path fill-rule="evenodd" clip-rule="evenodd" d="M47.0615 53.3037C47.3327 53.0453 47.5361 52.6024 47.6266 52.1225L37.1383 22.8866C36.8671 22.8128 36.5732 22.8497 36.3246 23.1081L26.8309 32.0413L37.0705 62.5322C37.2061 62.4953 37.3644 62.4215 37.5 62.3107L47.0615 53.3037Z" fill="url(#paint2_linear_1_59)"/>
<path fill-rule="evenodd" clip-rule="evenodd" d="M47.0615 53.3037L37.5226 62.2738C37.387 62.3846 37.2513 62.4584 37.0931 62.4953L37.2739 63.049L47.8526 53.0453V52.8239L47.5814 52.0856C47.5361 52.6024 47.3327 53.0453 47.0615 53.3037Z" fill="url(#paint3_linear_1_59)"/>
<path fill-rule="evenodd" clip-rule="evenodd" d="M47.0615 53.3037L37.5226 62.2738C37.387 62.3846 37.2513 62.4584 37.0931 62.4953L37.2739 63.049L47.8526 53.0453V52.8239L47.5814 52.0856C47.5361 52.6024 47.3327 53.0453 47.0615 53.3037Z" fill="url(#paint4_linear_1_59)"/>
</g>
<defs>
<linearGradient id="paint0_linear_1_59" x1="1479.74" y1="716.458" x2="-399.23" y2="2524.27" gradientUnits="userSpaceOnUse">
<stop stop-color="#41873F"/>
<stop offset="0.3288" stop-color="#418B3D"/>
<stop offset="0.6352" stop-color="#419637"/>
<stop offset="0.9319" stop-color="#3FA92D"/>
<stop offset="1" stop-color="#3FAE2A"/>
</linearGradient>
<linearGradient id="paint1_linear_1_59" x1="927.412" y1="2210.2" x2="3973.65" y2="1196.77" gradientUnits="userSpaceOnUse">
<stop offset="0.1376" stop-color="#41873F"/>
<stop offset="0.4032" stop-color="#54A044"/>
<stop offset="0.7136" stop-color="#66B848"/>
<stop offset="0.9081" stop-color="#6CC04A"/>
</linearGradient>
<linearGradient id="paint2_linear_1_59" x1="-64.4372" y1="2006.7" x2="2137.57" y2="2006.7" gradientUnits="userSpaceOnUse">
<stop offset="0.0919165" stop-color="#6CC04A"/>
<stop offset="0.2864" stop-color="#66B848"/>
<stop offset="0.5968" stop-color="#54A044"/>
<stop offset="0.8624" stop-color="#41873F"/>
</linearGradient>
<linearGradient id="paint3_linear_1_59" x1="-1080.4" y1="603.278" x2="1121.62" y2="603.278" gradientUnits="userSpaceOnUse">
<stop offset="0.0919165" stop-color="#6CC04A"/>
<stop offset="0.2864" stop-color="#66B848"/>
<stop offset="0.5968" stop-color="#54A044"/>
<stop offset="0.8624" stop-color="#41873F"/>
</linearGradient>
<linearGradient id="paint4_linear_1_59" x1="1442.42" y1="-2261.96" x2="36.9877" y2="2247.61" gradientUnits="userSpaceOnUse">
<stop stop-color="#41873F"/>
<stop offset="0.3288" stop-color="#418B3D"/>
<stop offset="0.6352" stop-color="#419637"/>
<stop offset="0.9319" stop-color="#3FA92D"/>
<stop offset="1" stop-color="#3FAE2A"/>
</linearGradient>
</defs>
</svg>
