<svg width="100" height="100" viewBox="0 0 100 100" fill="none" xmlns="http://www.w3.org/2000/svg">
<path d="M83.3333 12.5H16.6667C14.3646 12.5 12.5 14.3646 12.5 16.6667V83.3333C12.5 85.6354 14.3646 87.5 16.6667 87.5H83.3333C85.6354 87.5 87.5 85.6354 87.5 83.3333V16.6667C87.5 14.3646 85.6354 12.5 83.3333 12.5Z" fill="url(#paint0_linear_1_150)"/>
<path opacity="0.05" d="M80.8729 63.7625C79.1771 61.5438 76.9167 60.2563 74.725 59.1979C74.0604 58.8771 73.3938 58.5625 72.7271 58.2479C71.3417 57.5958 69.9083 56.9208 68.5563 56.2C67.5458 55.6604 67.7604 55.1396 67.875 54.8583C67.9833 54.5938 68.425 54.4083 68.95 54.4083C69.1063 54.4083 69.2667 54.425 69.425 54.4542C70.0167 54.5646 71.125 55.5104 71.7042 56.3979L72.2708 57.2646L72.8354 58.1312L73.7063 57.5708L74.5771 57.0104C74.7479 56.9 78.7958 54.2979 80.325 53.1896L80.9583 52.7313L81.5917 52.2729L81.3292 51.5375L81.0667 50.8021C80.9646 50.5146 78.4333 43.7604 68.1063 43.7604H68.0938C64.7375 43.8479 61.9021 45.0167 59.6229 47.2375C59.1437 47.7062 58.7188 48.2292 58.3375 48.7896V45.8333V44.7917V43.75H57.2958H56.25H29.1667H28.125H27.0833V44.7917V45.8333V52.1542V53.1958V54.2375H28.125H29.1667H37.4417V81.1917V82.2333V83.275H38.4833H39.525H45.7604H46.7979H47.8354L47.8396 82.2375L47.8438 81.2L47.9458 54.2375H56.25H56.4042C56.3563 54.7333 56.325 55.2354 56.3354 55.7437C56.4 59.0208 57.7188 62.0542 59.9542 64.0646C61.4667 65.425 63.2146 66.3854 64.9063 67.3146L65.3521 67.5604C66.4792 68.1833 67.6354 68.7292 68.7521 69.2583C69.6396 69.6792 70.5042 70.0875 71.35 70.5312C71.6646 70.6958 71.7896 70.9125 71.7771 71.2771C71.7625 71.7688 71.5708 72.0375 71.0979 72.2375C70.3729 72.5437 69.6667 72.6979 68.9958 72.6979C67.9875 72.6979 67.0083 72.3417 66.0812 71.6375C65.5854 71.2604 65.1 70.6896 64.5833 70.0833C64.2896 69.7396 63.9917 69.3917 63.675 69.0479L63.1063 68.4354L62.5375 67.8229L61.8167 68.2437L61.0958 68.6646C59.2854 69.7208 55.1708 72.1979 55.1708 72.1979L54.2917 72.7271L53.4125 73.2562L53.9292 74.1438L54.4458 75.0312C55.9313 77.5792 58.0104 79.7958 60.0104 80.9646C62.7833 82.5854 65.8125 83.4062 69.0146 83.4062C70.7583 83.4062 72.5875 83.1604 74.4521 82.6771C78.4771 81.6333 81.3938 79.0292 82.6646 75.3438C84.0021 71.4813 83.2979 66.9333 80.8729 63.7625Z" fill="black"/>
<path opacity="0.05" d="M68.1042 44.8021H68.0917H68.0771C65.0333 44.8812 62.4333 45.9521 60.3479 47.9833C58.4021 49.8812 57.3187 52.7 57.3792 55.7229C57.4396 58.7146 58.6312 61.4729 60.6521 63.2916C62.075 64.5708 63.7708 65.5041 65.4104 66.4041L65.8562 66.65C66.9562 67.2562 68.0958 67.7979 69.2 68.3208C70.0854 68.7396 70.9708 69.1583 71.8354 69.6125C72.5042 69.9625 72.8458 70.5521 72.8208 71.3146C72.7917 72.2104 72.35 72.8458 71.5062 73.2021C70.6521 73.5625 69.8104 73.7437 69 73.7437C67.7604 73.7437 66.5667 73.3146 65.4542 72.4708C64.8687 72.0271 64.3458 71.4125 63.7937 70.7625C63.5104 70.4312 63.2229 70.0916 62.9146 69.7604L62.3458 69.1479L61.625 69.5687C59.8187 70.6229 55.7125 73.0958 55.7125 73.0958L54.8333 73.625L55.35 74.5125C56.7479 76.9125 58.6875 78.9896 60.5396 80.0708C63.1521 81.5958 66.0042 82.3708 69.0187 82.3708C70.675 82.3708 72.4146 82.1375 74.1937 81.675C77.8687 80.7208 80.5292 78.3541 81.6833 75.0104C82.9062 71.4646 82.2646 67.3 80.0458 64.3979C78.4833 62.3521 76.3479 61.1416 74.2729 60.1375C73.6125 59.8187 72.9479 59.5041 72.2833 59.1916C70.8854 58.5333 69.4396 57.8521 68.0646 57.1187C66.8771 56.4854 66.4667 55.5437 66.9083 54.4646C67.1854 53.7875 67.9667 53.3666 68.9479 53.3666C69.1667 53.3666 69.3917 53.3875 69.6167 53.4312C70.5979 53.6146 71.9167 54.8208 72.575 55.8312L73.1396 56.6979L74.0104 56.1375C74.1812 56.0271 78.2167 53.4312 79.7125 52.35L80.3458 51.8916L80.0833 51.1562C79.9917 50.8937 77.7062 44.8021 68.1042 44.8021Z" fill="black"/>
<path opacity="0.05" d="M57.2917 44.7917H56.25H29.1667H28.125V45.8334V52.1542V53.1959H29.1667H38.4833V81.1917V82.2334H39.525H45.7604H46.7979L46.8021 81.1959L46.9083 53.1959H56.25H57.2917V52.1542V45.8334V44.7917Z" fill="black"/>
<path d="M62.15 70.4667C63.0875 71.4771 63.8354 72.5458 64.825 73.2979C66.9729 74.9312 69.4021 75.2167 71.9104 74.1583C73.1167 73.65 73.8208 72.6667 73.8625 71.3458C73.9 70.1792 73.3375 69.2229 72.3188 68.6875C70.3563 67.6583 68.2979 66.8062 66.3583 65.7354C64.6208 64.7771 62.8063 63.8271 61.3479 62.5146C57.4833 59.0354 57.4917 52.2188 61.0729 48.7292C63.0208 46.8313 65.3729 45.9146 68.1021 45.8438C77.0812 45.8438 79.1 51.5021 79.1 51.5021C77.6104 52.5792 73.4458 55.2583 73.4458 55.2583C72.7 54.1146 71.175 52.6625 69.8063 52.4042C68.0854 52.0813 66.4875 52.7354 65.9417 54.0667C65.3125 55.6021 65.8583 57.1208 67.5708 58.0354C69.6104 59.1229 71.7313 60.0625 73.8146 61.0708C75.8563 62.0583 77.8104 63.1917 79.2146 65.0271C82.7646 69.6708 82.0583 78.5563 73.9292 80.6646C69.4854 81.8167 65.1417 81.5542 61.0604 79.1688C59.1375 78.0458 57.3458 75.875 56.2458 73.9854C56.25 73.9854 60.3479 71.5188 62.15 70.4667Z" fill="white"/>
<path d="M29.1667 45.8333V52.1541H39.525V81.1916H45.7604L45.8708 52.1541H56.25V45.8333H29.1667Z" fill="white"/>
<defs>
<linearGradient id="paint0_linear_1_150" x1="12.5" y1="50" x2="87.5" y2="50" gradientUnits="userSpaceOnUse">
<stop stop-color="#0D61A9"/>
<stop offset="1" stop-color="#16528C"/>
</linearGradient>
</defs>
</svg>
