<svg width="100" height="100" viewBox="0 0 100 100" fill="none" xmlns="http://www.w3.org/2000/svg">
<path d="M50 8.4375C38.9769 8.4375 28.4054 12.8164 20.6109 20.6109C12.8164 28.4054 8.4375 38.9769 8.4375 50C8.4375 61.0231 12.8164 71.5946 20.6109 79.3891C28.4054 87.1836 38.9769 91.5625 50 91.5625C61.0231 91.5625 71.5946 87.1836 79.3891 79.3891C87.1836 71.5946 91.5625 61.0231 91.5625 50C91.5625 38.9769 87.1836 28.4054 79.3891 20.6109C71.5946 12.8164 61.0231 8.4375 50 8.4375Z" fill="white"/>
<path d="M16.6688 50C16.6688 63.2 24.3354 74.5959 35.4563 80L19.5521 36.4334C17.7042 40.5813 16.6688 45.1584 16.6688 50ZM72.5083 48.3209C72.5083 44.2021 70.2938 41.3417 69.0292 39.1292C67.3354 36.3604 65.7458 34.0521 65.7458 31.3125C65.7458 28.2604 68.8104 25.3959 72.0813 25.3959C72.2292 25.3959 72.3625 25.4084 72.5104 25.4125C66.5854 19.9667 58.6833 16.6667 50.0021 16.6667C38.775 16.6667 28.85 22.2209 22.8104 30.7271C23.2854 30.8813 23.45 30.8084 24.0833 30.8084C27.5604 30.8084 32.9667 30.3917 32.9667 30.3917C34.7583 30.2729 34.9771 32.9167 33.1729 33.1334C33.1729 33.1334 31.3729 33.3521 29.3646 33.45L41.7208 70.4875L49.0125 48.6104L43.5896 33.5104C41.7958 33.4146 40.0917 33.1938 40.0917 33.1938C38.2958 33.0771 38.5042 30.3292 40.2958 30.4521C40.2958 30.4521 45.8125 30.8688 49.0813 30.8688C52.5708 30.8688 57.9646 30.4521 57.9646 30.4521C59.7583 30.3334 59.975 32.9771 58.1813 33.1938C58.1813 33.1938 56.3688 33.4125 54.3646 33.5104L66.6375 70.1979L69.9688 59.1021C71.6646 54.7688 72.5083 51.1854 72.5083 48.3209ZM50.5854 52.9084L40.5854 81.975C43.5771 82.8625 46.7313 83.3334 50.0021 83.3334C53.8792 83.3334 57.6042 82.6583 61.0771 81.4438C60.9938 81.2958 60.9 81.1459 60.8313 80.9854L50.5854 52.9084ZM79.2563 33.9959C79.4042 35.0584 79.4813 36.2021 79.4813 37.4229C79.4813 40.8146 78.8438 44.6125 76.9417 49.375L66.7646 78.8229C76.6771 73.0479 83.3333 62.2959 83.3333 50C83.3333 44.2063 81.8521 38.7584 79.2563 33.9959Z" fill="#01579B"/>
<path d="M8.33331 50C8.33331 72.9667 27.0208 91.6667 49.9979 91.6667C72.9792 91.6667 91.6667 72.9667 91.6667 50C91.6667 27.0333 72.9791 8.33331 50 8.33331C27.0208 8.33331 8.33331 27.0333 8.33331 50ZM12.4896 50C12.4896 29.325 29.3104 12.5021 49.9979 12.5021C70.6854 12.5021 87.5104 29.325 87.5104 50C87.5104 70.675 70.6854 87.5021 50 87.5021C29.3166 87.5021 12.4896 70.675 12.4896 50Z" fill="#01579B"/>
</svg>
